<svg width="512" height="512" viewBox="0 0 512 512" fill="none" xmlns="http://www.w3.org/2000/svg">
<path fill-rule="evenodd" clip-rule="evenodd" d="M121.158 1.4439C95.0771 -3.30626 70.0838 13.9855 65.3336 40.0662L1.44536 390.843C-3.30478 416.925 13.9869 441.917 40.0675 446.667L390.845 510.555C416.926 515.306 441.918 498.014 446.669 471.934L510.557 121.156C515.307 95.0755 498.016 70.0824 471.936 65.3322L121.158 1.4439ZM237.358 153.011C228.267 151.364 219.611 154.02 213.189 160.971L213.077 161.094C208.166 166.542 205.293 173.163 204 180.302C201.586 193.632 199.264 209.019 197.027 226.44C196.619 229.52 195.84 235.014 194.682 242.973L194.512 242.568L194.446 242.422C175.318 199.899 159.76 167.442 147.815 145.223L146.286 142.378L143.63 140.539C138.814 137.203 133.506 134.748 127.739 133.704C121.009 132.485 114.307 133.296 108.072 136.28L107.906 136.359L107.742 136.443C100.114 140.353 95.7858 147.204 94.3765 154.984C92.7981 163.699 90.9723 176.922 88.8947 194.443L88.881 194.56L88.8693 194.675C87.2867 210.341 85.4242 224.026 83.2979 235.765C82.5608 239.835 81.5386 244.549 80.213 249.928C78.8378 255.509 77.8752 259.344 77.3106 261.502L77.2982 261.55C73.597 275.914 71.0557 287.197 69.8174 295.133L69.7758 295.398L69.7451 295.666C69.0339 301.837 68.967 309.283 72.2206 315.586L72.4867 316.101L72.7963 316.592C76.9978 323.251 83.6958 326.275 89.9251 327.403C97.0606 328.696 105.562 328.323 112.553 322.714C118.21 318.195 121.698 311.922 123.845 305.358L123.875 305.264C125.415 300.438 127.433 291.278 129.903 278.638C132.622 265.634 134.736 254.981 136.233 246.718C136.417 245.701 136.598 244.691 136.775 243.688C140.712 252.411 144.919 262 149.396 272.462C160.728 299.114 169.84 318.786 176.656 331.066C178.563 335.182 181.634 338.234 184.371 340.418L184.84 340.79L185.339 341.122C189.461 343.845 194.085 345.448 198.798 346.302C206.574 347.71 215.365 347.699 222.89 343.15L222.931 343.123C228.123 339.958 233.746 334.819 235.362 326.93C236.136 323.728 237.04 319.198 238.069 313.523C239.435 305.974 241.178 294.285 243.285 278.616C245.506 262.352 247.469 249.547 249.176 240.125C250.224 234.338 252.214 225.266 255.208 212.739L255.213 212.72C258.301 199.717 260.555 189.365 261.93 181.778C262.611 178.011 262.523 173.819 260.949 169.654C259.362 165.453 256.611 162.202 253.437 159.824C248.654 156.243 243.174 154.064 237.358 153.011ZM417.51 185.638C408.421 183.992 399.763 186.65 393.341 193.6L393.229 193.723C388.318 199.171 385.445 205.792 384.152 212.931C381.738 226.261 379.416 241.648 377.179 259.067C376.771 262.149 375.992 267.643 374.835 275.6L374.664 275.195L374.598 275.051C355.47 232.528 339.914 200.069 327.968 177.851L326.438 175.006L323.782 173.166C318.966 169.832 313.658 167.376 307.891 166.333C301.162 165.114 294.459 165.925 288.224 168.909L288.058 168.987L287.894 169.072C280.266 172.982 275.938 179.832 274.53 187.613C272.95 196.328 271.125 209.55 269.046 227.072L269.034 227.189L269.022 227.304C267.438 242.97 265.576 256.653 263.45 268.394C262.714 272.464 261.691 277.178 260.365 282.557C258.99 288.138 258.027 291.973 257.462 294.13L257.451 294.179C253.749 308.541 251.208 319.826 249.97 327.762L249.928 328.027L249.898 328.294C249.186 334.466 249.12 341.912 252.373 348.214L252.638 348.73L252.949 349.221C257.15 355.88 263.848 358.904 270.077 360.032C277.213 361.325 285.714 360.95 292.706 355.341C298.363 350.824 301.85 344.549 303.997 337.986L304.027 337.891C305.568 333.067 307.586 323.907 310.054 311.266C312.774 298.262 314.888 287.61 316.386 279.347C316.483 278.803 316.581 278.261 316.678 277.722C316.762 277.251 316.845 276.782 316.928 276.317C320.866 285.04 325.072 294.629 329.547 305.091C340.882 331.742 349.992 351.414 356.81 363.693C358.715 367.811 361.786 370.862 364.523 373.046L364.992 373.419L365.491 373.749C369.613 376.474 374.237 378.077 378.95 378.931C386.726 380.339 395.517 380.326 403.042 375.779L403.083 375.752C408.275 372.587 413.898 367.448 415.514 359.558C416.29 356.357 417.194 351.826 418.221 346.152C419.587 338.603 421.33 326.912 423.437 311.245C425.658 294.981 427.622 282.174 429.328 272.754C430.376 266.965 432.366 257.894 435.36 245.368L435.365 245.349C438.453 232.344 440.707 221.994 442.082 214.406C442.763 210.64 442.675 206.446 441.101 202.282C439.514 198.082 436.763 194.83 433.589 192.453C428.808 188.872 423.326 186.693 417.51 185.638Z" fill="url(#paint0_linear_42_5)"/>
<defs>
<linearGradient id="paint0_linear_42_5" x1="256.001" y1="0.658691" x2="256.001" y2="511.341" gradientUnits="userSpaceOnUse">
<stop stop-color="#75FF08"/>
<stop offset="0.33" stop-color="#08B5FF"/>
<stop offset="0.68" stop-color="#BF08FF"/>
<stop offset="1" stop-color="#FF0808"/>
</linearGradient>
</defs>
</svg>
