<svg width="512" height="512" viewBox="0 0 512 512" fill="none" xmlns="http://www.w3.org/2000/svg">
<g clip-path="url(#clip0_43_7)">
<path d="M65.3336 40.0662C70.0839 13.9855 95.0772 -3.30626 121.158 1.4439L471.936 65.3322C498.016 70.0823 515.307 95.0756 510.557 121.156L446.669 471.935C441.919 498.015 416.927 515.306 390.845 510.555L40.0676 446.667C13.9869 441.917 -3.30478 416.925 1.44536 390.843L65.3336 40.0662Z" fill="url(#paint0_linear_43_7)"/>
<path fill-rule="evenodd" clip-rule="evenodd" d="M213.189 160.971C219.611 154.02 228.267 151.364 237.358 153.011C243.174 154.064 248.654 156.243 253.437 159.824C256.611 162.202 259.362 165.452 260.949 169.654C262.523 173.818 262.611 178.012 261.93 181.778C260.555 189.365 258.301 199.716 255.213 212.72L255.208 212.74C252.214 225.265 250.224 234.337 249.176 240.125C247.469 249.546 245.506 262.352 243.285 278.616C241.178 294.285 239.435 305.974 238.069 313.523C237.04 319.198 236.136 323.728 235.362 326.93C233.746 334.819 228.123 339.958 222.931 343.123L222.889 343.15C215.365 347.699 206.574 347.71 198.798 346.302C194.085 345.448 189.461 343.845 185.339 341.122L184.839 340.79L184.371 340.418C181.633 338.234 178.563 335.182 176.657 331.066C169.84 318.786 160.729 299.114 149.396 272.463C144.919 262 140.712 252.411 136.775 243.688C136.598 244.691 136.417 245.701 136.233 246.718C134.736 254.981 132.622 265.633 129.903 278.638C127.433 291.278 125.415 300.438 123.875 305.264L123.845 305.358C121.698 311.922 118.21 318.195 112.553 322.714C105.562 328.323 97.0606 328.696 89.9251 327.403C83.6958 326.275 76.9977 323.251 72.7963 316.592L72.4868 316.101L72.2207 315.586C68.967 309.283 69.0339 301.837 69.745 295.666L69.7759 295.398L69.8174 295.133C71.0556 287.197 73.5969 275.913 77.2982 261.55L77.3106 261.502C77.8752 259.345 78.8377 255.509 80.213 249.928C81.5386 244.548 82.5608 239.835 83.2979 235.765C85.4242 224.025 87.2867 210.341 88.8693 194.676L88.881 194.56L88.8947 194.444C90.9723 176.922 92.7981 163.699 94.3765 154.984C95.7858 147.204 100.114 140.353 107.742 136.443L107.906 136.359L108.072 136.28C114.307 133.297 121.009 132.485 127.739 133.704C133.506 134.748 138.814 137.203 143.63 140.539L146.286 142.378L147.815 145.223C159.76 167.441 175.318 199.9 194.447 242.423L194.512 242.567L194.682 242.972C195.84 235.015 196.619 229.52 197.027 226.439C199.263 209.02 201.586 193.632 204 180.303C205.293 173.163 208.166 166.543 213.076 161.095L213.189 160.971ZM393.341 193.6C399.763 186.649 408.421 183.993 417.51 185.639C423.326 186.692 428.808 188.871 433.589 192.453C436.763 194.83 439.514 198.081 441.101 202.282C442.675 206.447 442.763 210.64 442.082 214.407C440.707 221.993 438.453 232.345 435.365 245.349L435.36 245.368C432.366 257.894 430.376 266.965 429.328 272.753C427.622 282.175 425.658 294.981 423.437 311.245C421.33 326.912 419.587 338.603 418.221 346.152C417.194 351.826 416.29 356.357 415.514 359.558C413.898 367.448 408.275 372.587 403.083 375.752L403.042 375.779C395.517 380.326 386.726 380.339 378.95 378.931C374.237 378.077 369.613 376.474 365.491 373.749L364.992 373.419L364.523 373.046C361.786 370.862 358.715 367.811 356.81 363.693C349.992 351.414 340.882 331.742 329.547 305.091C325.072 294.629 320.866 285.04 316.928 276.316C316.75 277.319 316.57 278.329 316.386 279.347C314.888 287.609 312.774 298.262 310.054 311.266C307.586 323.907 305.568 333.067 304.027 337.891L303.997 337.986C301.85 344.549 298.363 350.824 292.706 355.341C285.714 360.95 277.213 361.325 270.077 360.032C263.848 358.904 257.15 355.88 252.949 349.221L252.638 348.73L252.373 348.214C249.12 341.912 249.186 334.466 249.898 328.294L249.928 328.027L249.97 327.762C251.208 319.826 253.749 308.541 257.451 294.179L257.462 294.13C258.027 291.973 258.99 288.138 260.365 282.556C261.691 277.177 262.714 272.464 263.45 268.394C265.576 256.653 267.438 242.97 269.022 227.304L269.034 227.188L269.046 227.072C271.125 209.55 272.95 196.328 274.53 187.612C275.938 179.832 280.266 172.982 287.894 169.072L288.058 168.988L288.224 168.908C294.459 165.925 301.162 165.113 307.891 166.332C313.658 167.377 318.966 169.831 323.782 173.167L326.438 175.006L327.968 177.852C339.914 200.069 355.47 232.528 374.598 275.051L374.664 275.196L374.835 275.601C375.992 267.643 376.771 262.148 377.179 259.068C379.416 241.648 381.738 226.26 384.152 212.931C385.445 205.791 388.318 199.171 393.229 193.723L393.341 193.6Z" fill="white"/>
</g>
<defs>
<linearGradient id="paint0_linear_43_7" x1="256.001" y1="0.658691" x2="256.001" y2="511.341" gradientUnits="userSpaceOnUse">
<stop stop-color="#75FF08"/>
<stop offset="0.33" stop-color="#08B5FF"/>
<stop offset="0.68" stop-color="#BF08FF"/>
<stop offset="1" stop-color="#FF0808"/>
</linearGradient>
<clipPath id="clip0_43_7">
<rect width="512" height="512" fill="white"/>
</clipPath>
</defs>
</svg>
